<svg xmlns="http://www.w3.org/2000/svg" xmlns:xlink="http://www.w3.org/1999/xlink" viewBox="0 0 512 512"><defs><linearGradient xlink:href="#a" id="c" x1="203.278" x2="361.003" y1="109.139" y2="433.291"><stop offset="0" stop-color="#7cea57"/><stop offset=".978" stop-color="#c9ffa9"/></linearGradient><linearGradient xlink:href="#a" id="i" x1="372.015" x2="166.492" y1="342.428" y2="94.496"><stop offset="0" stop-color="#94f8a5"/><stop offset="1" stop-color="#00b818"/></linearGradient><linearGradient xlink:href="#a" id="b" x1="213.087" x2="323.97" y1="132.474" y2="135.023"><stop offset=".725" stop-color="#00d228" stop-opacity="0"/><stop offset="1" stop-color="#00b322" stop-opacity=".55"/></linearGradient><linearGradient xlink:href="#b" id="j" x1="196.337" x2="316.182" y1="154.543" y2="154.543"/><linearGradient xlink:href="#a" id="k" x1="362.553" x2="430.13" y1="284.05" y2="420.959"><stop offset=".311" stop-color="#17d23b"/><stop offset="1" stop-color="#7cea57"/></linearGradient><linearGradient xlink:href="#c" id="l" x1="387.142" x2="514.258" y1="173.281" y2="515.518"/><linearGradient xlink:href="#a" id="f" x1="124.914" x2="297.416" y1="393.46" y2="70.817"><stop offset="0" stop-color="#17d23b"/><stop offset="1" stop-color="#7cea57"/></linearGradient><linearGradient xlink:href="#a" id="d" x1="261.873" x2="520.655" y1="479.2" y2="175.691"><stop offset=".062" stop-color="#7cea57"/><stop offset="1" stop-color="#c9ffa9"/></linearGradient><linearGradient xlink:href="#d" id="m" x1="125.659" x2="384.487" y1="363.277" y2="59.713"/><linearGradient xlink:href="#d" id="n" x1="32.016" x2="290.79" y1="283.515" y2="-19.985"/><linearGradient xlink:href="#a" id="e" x1="280.591" x2="322.337" y1="65.175" y2="67.078"><stop offset=".624" stop-color="#00d228" stop-opacity="0"/><stop offset="1" stop-color="#00b322" stop-opacity=".15"/></linearGradient><linearGradient xlink:href="#e" id="p" x1="295.006" x2="318.937" y1="44.186" y2="44.911"/><linearGradient xlink:href="#f" id="q" x1="278.543" x2="323.107" y1="343.474" y2="14.271"/><linearGradient xlink:href="#f" id="r" x1="404.359" x2="404.412" y1="312.202" y2="311.81"/><linearGradient xlink:href="#f" id="s" x1="403.38" x2="403.582" y1="314.533" y2="313.041"/><linearGradient id="a" gradientUnits="userSpaceOnUse"/><path id="g" d="M318.843 84.079c-.058-.016-.111-.038-.166-.057l-.072-.022-.019-.008h-.01l-8.786-2.785-.094-.027-1.129-.315-.422-.118q-.5-.135-1-.267l-.538-.144q-.531-.14-1.063-.274l-.443-.114q-.651-.163-1.3-.323l-.177-.043-9.406-1.976-.3-.055-.419-.071q-2.774-.479-5.577-.868a150.1 150.1 0 0 0-17.422-1.418h-.242l-1.895-.04h-.063l-.7-.024-1.509-.024h-.171l-.82.009-1.673.019-1.305.033-1.32.036q-1.044.038-2.085.089l-.515.022a158.321 158.321 0 0 0-126.728 74.847c-.01.01-.019.015-.029.024a127.537 127.537 0 0 0-2.322 3.9l-.875 1.5c-.31.551-.6 1.114-.9 1.665l-1.722 3.2a154.53 154.53 0 0 0-10.106 24.422l-.067.206-1.127 3.553-.058.193.014-.036c.014-.036.031-.074.05-.113s.041-.094.062-.144l.011-.024.1-.284c.531-1.554 1.374-3.762 1.859-5.091.01-.031.022-.065.031-.1q.993-2.724 2.1-5.389c23.614-56.809 83.191-89.924 143.905-79.988h.008q1.135.183 2.266.39 1.278.229 2.545.486t2.543.539l.626.139a134.21 134.21 0 0 1 48.221 21.608l.032.021a.207.207 0 0 0 .024.017c.06.041.151.1.211.145V84.084a.126.126 0 0 1-.033-.005z"/><path id="h" d="M318.667 120.863a.25.25 0 0 1-.024-.017l-.031-.021a134.214 134.214 0 0 0-48.222-21.608l-.626-.139q-1.266-.283-2.542-.539-1.276-.256-2.545-.486-1.13-.206-2.267-.39h-.007c-60.713-9.957-120.3 23.156-143.908 79.97q-1.107 2.667-2.1 5.389c-.01.031-.022.065-.031.1l-1.859 5.091-.1.284-.011.024-.062.144c-.02.044-.036.077-.05.113 0 .012-.011.025-.015.036.038-.086.116-.2.156-.291l.473-1.092.983-2.231.053-.118.719-1.548.293-.567a134.03 134.03 0 0 1 2.48-4.757l.5-.891.311-.541.53-.918.2-.342.652-1.092q.09-.155.18-.3l.173-.271a.51.51 0 0 0 .038-.06c.036-.048.067-.108.1-.155l.334-.525.441-.7.125-.2q.27-.422.547-.844c.357-.555.712-1.087 1.11-1.621.1-.16.209-.316.317-.472l.269-.378c.023-.036.05-.07.074-.106l.671-.953a8.4 8.4 0 0 1 .238-.338l.252-.34c.017-.021.033-.045.05-.069.082-.108.156-.218.238-.328l1.163-1.543.388-.517.092-.113c.239-.321.482-.641.748-.963l1.082-1.305.911-1.118.242-.273.187-.23c.238-.278.49-.544.732-.817l.11-.122 1.192-1.329c.166-.2.331-.381.5-.563l.408-.441a58.684 58.684 0 0 1 1.624-1.722 25.78 25.78 0 0 1 1.146-1.145c.585-.6 1.187-1.166 1.792-1.736l.7-.676c.019-.041.06-.06.1-.1.125-.118.254-.228.381-.343l1.725-1.576c.506-.448 1.014-.865 1.494-1.284.017-.016.034-.028.053-.043a.242.242 0 0 0 .033-.031.557.557 0 0 0 .094-.074l2.78-2.268c.568-.463 1.156-.894 1.739-1.339l1.64-1.246a85.16 85.16 0 0 1 2.555-1.8l.693-.477 2.516-1.638a5.6 5.6 0 0 0 .554-.359c.454-.288.929-.547 1.391-.824.528-.309 1.051-.635 1.591-.92a96.9 96.9 0 0 1 6.615-3.54l.739-.369c.1-.053.215-.1.321-.151.7-.337 1.4-.675 2.132-.986.312-.142.6-.281.909-.4.02-.007.034-.015.053-.022h.01c.95-.436 1.9-.832 2.849-1.208 2.6-1.027 5.229-1.978 7.9-2.807 1.269-.4 2.535-.771 3.8-1.109a90.16 90.16 0 0 1 3.247-.828l1.13-.259a76.28 76.28 0 0 1 2.989-.632c1.168-.235 2.336-.434 3.523-.633l1.881-.275a105.36 105.36 0 0 1 3.526-.455l2.928-.278c.2-.019.377-.038.576-.038 1.168-.1 2.317-.158 3.485-.2.4-.038.772-.038 1.146-.057q1.785-.061 3.565-.06c1.657 0 3.288.095 4.924.172l4.365.276 1.67.174q2.794.3 5.545.74l1.147.175q3.3.569 6.519 1.334c.355.084.7.182 1.053.271q2.73.675 5.406 1.5.7.212 1.411.433a106.02 106.02 0 0 1 12.119 4.728l1.375.652q2.436 1.172 4.8 2.457l1.019.546q2.786 1.552 5.466 3.27l1.065.706c.013.01.027.018.041.026q2.133 1.408 4.195 2.908l1.377 1.011a104.53 104.53 0 0 1 4.905 3.9 2.51 2.51 0 0 1 .144.127c1.533 1.3 3.013 2.665 4.468 4.054l1.389 1.358q1.659 1.642 3.243 3.356l1.187 1.274q1.99 2.224 3.852 4.551c.415.517.806 1.049 1.209 1.571q1.3 1.689 2.536 3.427l1.357 1.95q1.325 1.954 2.555 3.978c.5.808.973 1.624 1.448 2.446.72 1.248 1.42 2.5 2.087 3.782.372.709.724 1.427 1.079 2.146.065.134.12.273.185.407l7.547 20 .655 1.8c.017.043.031.084.046.125q.659 1.808 1.314 3.617l.477 1.322c.319.783.6 1.544.905 2.318l.007.019c.007.022.015.036.022.058l.031.072c.079.2.2.408.284.611l-.014-92.146v-.021a2.88 2.88 0 0 0-.202-.142z"/><radialGradient xlink:href="#a" id="o" cx="341.52" cy="30.403" r="70.957" gradientTransform="matrix(.927 .379 1.461 -3.566 40.545 284.635)"><stop offset="0" stop-color="#00b322" stop-opacity=".25"/><stop offset=".438" stop-color="#00d228" stop-opacity="0"/></radialGradient></defs><g transform="translate(-.005)"><use xlink:href="#g" fill="url(#c)"/><use xlink:href="#h" fill="url(#i)"/><use xlink:href="#g" fill="url(#b)"/><use xlink:href="#h" fill="url(#j)"/><path fill="url(#k)" d="M410.23 304.418q-3.033 7.962-6.685 15.605-1.219 2.556-2.5 5.074-1.484 2.918-3.053 5.781-1.631 2.974-3.353 5.892-3.156 5.342-6.615 10.476-1.756 2.612-3.589 5.166-4.737 6.608-9.957 12.831l-.012.014 25.141 69.3.022.061.595 1.639.053.144.08.221.28.773.032.09h57.841z"/><path fill="url(#l)" d="m424.252 201.143-.087-.24-.364-.6.187 29.756-.031 1.166-.067 3.674-.022.506v.263q-.057 1.767-.139 3.53l-.307 5.6q-.193 2.946-.477 5.861a1.39 1.39 0 0 0-.031.356q-.486 4.771-1.188 9.473a209.88 209.88 0 0 1-11.491 43.924l48.28 133.069h51.5z"/><path fill="url(#f)" d="m423.048 248.027-.168 1.6q-.6 5.472-1.523 10.845a182.75 182.75 0 0 1-12.139 41.155q-.493 1.152-1 2.3l-.081.183-.087.192q-.231.522-.467 1.039l-.241.524-.323.7-1.832 3.826-.068.14-.267.541-.306.621a5.91 5.91 0 0 1-.144.287l-.278.556-.065.127-.025.048-.42.822-.056.11-.049.094-.388.756-.674 1.279q-.4.768-.82 1.533a.26.26 0 0 0-.024.043q-.507.935-1.024 1.863-.782 1.4-1.581 2.781l-1.034 1.758q-1.1 1.854-2.252 3.681l-.566.9q-3.094 4.868-6.483 9.525l-.624.853q-1.561 2.123-3.183 4.2l-.42.537q-.765.976-1.547 1.937-.323.4-.65.8l-1.458 1.76q-4.3 5.135-8.975 9.937l-.012.015-.216.225-.015.014-.839.853q-.378.388-.763.769l-.767.764q-.771.765-1.55 1.516-1.521 1.473-3.075 2.9a.84.84 0 0 1-.077.069q-.795.741-1.6 1.462l-.808.723q-.81.726-1.629 1.432-.78.682-1.568 1.351a.88.88 0 0 1-.075.062q-.788.672-1.588 1.334l-.074.06q-1.116.926-2.248 1.832l-.046.037-.628.5-.129.1-.847.666-.8.625-.318.25-.938.72q-1.083.827-2.179 1.635-.495.365-.991.727l-.379.272-.167.121q-.489.353-.979.7l-.15.108-.412.3-1.051.74q-1.057.736-2.12 1.457-1.063.721-2.142 1.427a.425.425 0 0 1-.067.043q-1.364.9-2.746 1.768-.889.564-1.785 1.111c-.021.015-.043.026-.065.039q-1.824 1.123-3.679 2.2l-.062.036-1.893 1.087q-1.425.809-2.866 1.591-.929.505-1.866 1-.532.28-1.065.558-.954.5-1.912.98-.533.269-1.065.533l-.894.441q-1.99.978-4.008 1.907-.947.433-1.9.862-4.63 2.07-9.395 3.89l-1.833.689q-2.611.968-5.262 1.857-2.083.7-4.188 1.348-1.593.492-3.2.956a182.51 182.51 0 0 1-7.56 2.012q-2.177.531-4.375 1.008l-.717.153q-1.32.284-2.648.546-.946.188-1.895.364l-.674.125-.724.131a184.12 184.12 0 0 1-18.32 2.343q-.913.072-1.83.132-3.566.245-7.165.347l-5.447.134c-101.702.032-184.197-82.342-184.314-184.044 0-101.67 82.469-184.046 184.314-184.046h1.326l1.324.015 1.324.024 1.027.024c.233 0 .465.012.7.021l.914.029 1.1.043.463.019 1.067.048q.659.033 1.312.07l1.48.088 1.132.077 1.355.1q.623.047 1.243.1.666.057 1.331.117l1.269.122q1.188.115 2.372.25l.209.024q.528.057 1.058.122l.592.072 2.204.282q1.358.18 2.7.383.564.083 1.124.173.56.09 1.133.179l1.575.261q.548.094 1.094.192l1.132.2.269.05 1.05.2.269.05q.53.1 1.055.209.627.122 1.253.253l.769.161.895.191c.029 0 .058.01.084.017l1.322.292 4.658 1.109 1 .257 1.173.306 1.223.328q1.6.435 3.18.9l.78.229.808.242q.806.242 1.6.491 1.054.327 2.1.668l1.026.338 1 .336.976.332q1.781.612 3.54 1.26l1.166.434.106.038.8.307.842.323q1.168.45 2.327.92l.81.328.84.345q2.066.855 4.1 1.758l.912.409.947.429 1.13.52 1.487.7.053.024c.067.034.136.062.206.091l.031.014V47.416a210.483 210.483 0 0 0-106.439-28.691c-116.735 0-211.343 94.5-211.343 211.065 0 115.2 92.394 208.8 207.247 210.98l4.1.059h.058a212.937 212.937 0 0 0 39.48-3.7 209.455 209.455 0 0 0 69.573-26.545c5.2-3.106 10.256-6.481 15.158-10.033a212.177 212.177 0 0 0 37.533-35.016v-.007l.007-.007.024-.029.194-.235q5.231-6.231 9.97-12.845 1.832-2.554 3.589-5.166 3.454-5.135 6.616-10.476 1.722-2.916 3.352-5.892 1.569-2.865 3.052-5.782 1.286-2.517 2.506-5.073 3.647-7.637 6.685-15.605a209.88 209.88 0 0 0 11.491-43.924q.7-4.7 1.188-9.473a1.39 1.39 0 0 1 .031-.356q.288-2.914.477-5.861z"/><path fill="url(#d)" d="m404.121 312.541.278-.556.144-.287-.006.01-.416.833z"/><path fill="url(#m)" d="M423.8 200.453V18.725h-67.785V194.65a140.42 140.42 0 0 1-18.454 69.73A141.4 141.4 0 0 1 223.39 335.6l-1.523.048-.888.027-.439.014-1.532.113-1.106.071-5.474.183c-.868 0-1.794-.032-2.662-.032h-.029l-2.9-.139-1.434-.069c-.094 0-.2-.017-.291-.022l-1.3-.1-1.475-.129-.556-.05-2.063-.209-.849-.122-4.327-.625-1.487-.256-.245-.041c-.48-.12-.928-.177-1.374-.268l-2.483-.537-.42-.108a89.82 89.82 0 0 1-4.456-1.118l-1.523-.419a103.85 103.85 0 0 1-5.982-1.938 37.78 37.78 0 0 1-2.243-.843l-.149-.053s-.088-.038-.134-.055a34.66 34.66 0 0 1-2.137-.843l-3.675-1.609-.213-.091-.094-.046-1.82-.85-1.135-.539-.06-.029-2.242-1.164a100.06 100.06 0 0 1-9.419-5.645 102.62 102.62 0 0 1-5.006-3.562 3.47 3.47 0 0 0-.113-.081l-.1-.079-3.219-2.52-1.465-1.255-2.214-1.988a109.74 109.74 0 0 1-5.92-5.717l-.328-.326-.031-.036-1.4-1.516a9.9 9.9 0 0 0-.748-.838l-1.163-1.37-.324-.381-1.173-1.382a56.89 56.89 0 0 1-1.614-2.021.23.23 0 0 0-.031-.039c-.012-.012-.017-.026-.027-.038l-1.5-1.933c-2.1-2.872-4.061-5.8-5.9-8.879-.015-.026-.034-.052-.048-.079s-.031-.048-.043-.072c-.288-.483-.6-.967-.857-1.451l-1.206-2.179a.31.31 0 0 1-.017-.029c-.01-.019-.019-.039-.029-.055q-1.194-2.217-2.3-4.515a37.137 37.137 0 0 1-1.005-2.184c0-.008-.007-.017-.012-.027-.268-.565-.508-1.1-.748-1.669a40.63 40.63 0 0 1-.657-1.583c-.207-.472-.413-.918-.59-1.39l-.008-.014-.007-.021-.89-2.367a27.46 27.46 0 0 1-.592-1.688 135.84 135.84 0 0 1-1.621-4.97v-.031c-.329-1.044-.566-2.091-.866-3.164v-.01a69.005 69.005 0 0 1-.657-2.529l-.269-1.253a38.76 38.76 0 0 1-.537-2.66c-.18-.777-.3-1.55-.448-2.357a100.43 100.43 0 0 1-1.049-7.974l-.237-2.979q-.09-1.656-.18-3.4a164.28 164.28 0 0 1 5.114-36.578c0-.029 0-.06.06-.12a102.75 102.75 0 0 1 2.9-7.822l.031-.029v-.06l.116-.272c.353-1.2.751-2.369 1.127-3.553l.067-.206a154.47 154.47 0 0 1 10.1-24.422c.557-1.076 1.142-2.132 1.722-3.2l.905-1.665.875-1.5a129.11 129.11 0 0 1 2.322-3.9c.009-.009.019-.014.029-.024A158.32 158.32 0 0 1 258.2 75.306l.515-.022 2.085-.089 1.32-.036 1.3-.033 1.674-.019.82-.009h.498c.4 0 .789.013 1.182.027l.7.024.56.014 1.4.028h.241a150.12 150.12 0 0 1 17.427 1.412q2.805.386 5.577.868l.419.071.3.055.423.076c2.984.537 5.992 1.174 8.982 1.9l.178.043q.653.159 1.3.323l.443.114 1.062.274.539.144q.5.132.994.267l.423.118 1.129.315.094.027a153.83 153.83 0 0 1 8.786 2.785h.01l.019.008.072.026c.055.019.108.041.165.057.01.005.02.009.031.012V63.648l-.031-.014c-.07-.029-.139-.057-.206-.091l-.053-.024-1.487-.7-1.13-.52-.947-.429-.912-.409q-2.036-.9-4.1-1.758l-.84-.345-.811-.328q-1.158-.471-2.326-.92l-.842-.323-.8-.307-.106-.038-1.166-.434q-1.76-.647-3.54-1.26l-.976-.332-1-.336-1.026-.338q-1.044-.34-2.1-.668-.8-.251-1.6-.491l-.808-.242-.78-.229q-1.582-.464-3.18-.9l-1.224-.328-1.172-.306-1-.257-4.658-1.109-1.322-.292a.96.96 0 0 0-.084-.017l-.895-.191-.77-.161q-.626-.132-1.252-.253-.525-.108-1.055-.209l-.269-.05-1.05-.2-.269-.05-1.132-.2-1.094-.192-1.576-.261q-.567-.093-1.132-.179l-1.125-.173q-1.346-.2-2.7-.383-.543-.075-1.091-.144l-1.113-.138-.592-.072q-.529-.064-1.058-.122a4.95 4.95 0 0 0-.209-.024q-1.183-.133-2.372-.25l-1.269-.122q-.666-.06-1.331-.117-.62-.054-1.243-.1l-1.355-.1-1.132-.077-1.48-.088q-.654-.036-1.312-.07l-1.067-.048c-.154-.009-.31-.014-.463-.019l-1.1-.043-.914-.029a97.045 97.045 0 0 0-3.051-.069l-1.324-.015c-.442-.003-.882 0-1.326 0-101.845 0-184.314 82.376-184.314 184.046.12 101.7 82.614 184.071 184.314 184.039 1.825 0 3.634-.081 5.447-.134q3.6-.1 7.165-.347.916-.061 1.83-.132a184.12 184.12 0 0 0 18.32-2.343l.724-.131.674-.125q.95-.175 1.895-.364 1.327-.262 2.648-.546l.717-.153q2.2-.478 4.375-1.008l2.173-.544 2.164-.568a182.51 182.51 0 0 0 6.423-1.856q2.1-.651 4.188-1.348 2.652-.891 5.262-1.857l1.833-.689q4.764-1.818 9.395-3.89.954-.427 1.9-.862 2.017-.931 4.008-1.907l.894-.441 1.065-.533q.957-.486 1.912-.98.533-.278 1.065-.558.936-.5 1.866-1 1.439-.78 2.866-1.591l1.893-1.087.062-.036q1.853-1.082 3.679-2.2c.022-.013.044-.024.065-.039q.9-.549 1.785-1.111 1.381-.873 2.746-1.768a.425.425 0 0 0 .067-.043l1.758-1.171.384-.256.52-.357.591-.406 1.009-.694q.526-.369 1.051-.74l.412-.3.15-.108.979-.7.167-.121.379-.272.991-.727.045-.032q1.032-.765 2.056-1.543l.078-.06.938-.72.318-.25.11-.087q.769-.6 1.532-1.2l.129-.1.628-.5.046-.037q1.131-.908 2.248-1.832c.026-.019.05-.039.074-.06q.8-.66 1.588-1.334a.88.88 0 0 0 .075-.062q.787-.669 1.568-1.351.821-.708 1.629-1.432l.808-.723q.807-.723 1.6-1.462a.84.84 0 0 0 .077-.069q1.554-1.437 3.075-2.9.777-.752 1.55-1.516l.767-.764.763-.769.839-.853.015-.014.216-.225.012-.015q4.666-4.8 8.975-9.937l1.458-1.76q.328-.4.65-.8.781-.963 1.547-1.937l.42-.537q1.623-2.073 3.183-4.2l.624-.853q3.385-4.656 6.483-9.525l.566-.9q1.147-1.829 2.252-3.681l1.034-1.758q.8-1.383 1.581-2.781.517-.927 1.024-1.863a.26.26 0 0 1 .024-.043q.417-.765.82-1.533l.674-1.279.218-.431.108-.209.4-.781.1-.2.084-.167.025-.048.065-.127.339-.681-.169.333.142-.281.047-.093.033-.067.161-.323-.126.257v.012l.306-.621.335-.681 1.832-3.826.323-.7h-.006l.714-1.56.168-.375q.508-1.145 1-2.3a182.75 182.75 0 0 0 12.139-41.155q.921-5.37 1.523-10.845l.168-1.6.369-3.224.307-5.6q.079-1.764.139-3.53v-.263l.022-.506.067-3.674c.031-.388.031-.778.031-1.166zm-18.22 109.125-.082.168-.024.051.009-.02.444-.928-.346.729zm13.32-37.541q.4-1.695.77-3.4-.37 1.707-.77 3.4zm2.341-11.565-.26 1.48.255-1.48.1-.549c-.036.182-.068.367-.099.549z"/><path fill="url(#n)" d="m115.928 185.072-.053.118.048-.1Z"/><path fill="url(#o)" d="M453.572 295.456q0-7.637-.566-15.064l-28.754-79.249-.086-.24-.365-.6.187 29.756-.031 1.166-.067 3.674-.022.506v.263q-.057 1.767-.139 3.53l-.307 5.6q-.193 2.946-.477 5.861a1.39 1.39 0 0 0-.031.356q-.486 4.771-1.188 9.473a209.82 209.82 0 0 1-11.489 43.918v.007q-3.033 7.962-6.685 15.605-1.219 2.556-2.5 5.074-1.484 2.918-3.053 5.781-1.631 2.974-3.352 5.892-3.158 5.342-6.616 10.476-1.756 2.612-3.589 5.166-4.737 6.608-9.957 12.831l-.012.014 20.645 56.915c16.457-9.8 30.58-26.189 40.821-46.909l.007-.014c11.089-22.466 17.626-50.016 17.626-79.788z"/><path fill="url(#e)" d="M318.875 63.646v20.445l-.031-.012c-.058-.017-.111-.039-.166-.058L318.6 84l-.019-.007h-.009l-8.786-2.783-.094-.029q-.561-.157-1.13-.313l-.422-.118-.993-.268-.539-.144q-.53-.14-1.063-.275l-.444-.113q-.651-.165-1.3-.323l-.178-.043-9.407-1.977-.3-.055-.418-.072q-2.774-.481-5.577-.867a150.12 150.12 0 0 0-17.421-1.42h-.243l-1.4-.029c-.187 0-.374-.007-.561-.012l-.7-.023a30.72 30.72 0 0 0-1.18-.029h-.499l-.82.01-1.674.019-1.3.033-1.321.036-2.084.089-.516.021a158.836 158.836 0 0 0-32.726 5.107V46.272q6.954-.523 14.048-.527l1.327.005 1.324.014 1.324.024 1.026.024q.349.008.7.022.458.01.914.031.55.015 1.1.041c.154 0 .31.009.463.019l1.068.05q.657.029 1.312.07l1.479.086 1.133.077 1.355.1 1.242.1 1.331.117 1.269.122q1.188.115 2.372.249a2.91 2.91 0 0 1 .209.027l1.058.119.592.072 1.113.139 1.092.144q1.356.18 2.7.383l1.125.172 1.132.18 1.576.261 1.093.192 1.132.2.269.051 1.051.2.268.05 1.056.208 1.252.254.77.161.978.208 1.322.292q1.641.366 3.269.764l2.389.601q.586.147 1.173.307l1.223.328q1.6.435 3.18.9l.78.23.808.242 1.6.491q1.053.327 2.1.668l1.027.338 1 .335.976.333q1.782.611 3.541 1.26l1.165.434c.034.011.07.026.106.04l.8.3.842.324q1.17.449 2.327.919l.811.329.839.344q2.065.855 4.1 1.758l.911.41.947.429 1.13.519 1.487.7c.017.005.036.015.053.022.067.033.137.062.206.091z"/><path fill="url(#p)" d="M318.875 47.415v16.231l-.031-.014-.206-.091-.053-.022-1.487-.7-1.13-.52-.947-.429-.912-.409q-2.035-.9-4.1-1.758l-.84-.343-.81-.328-2.327-.92-.842-.325-.8-.3-.106-.038-1.165-.436q-1.76-.646-3.541-1.26l-.976-.33-1-.338-1.026-.338q-1.044-.34-2.1-.668l-2.408-.73-.78-.23q-1.583-.463-3.18-.9l-1.223-.331q-.587-.157-1.173-.307l-1-.256-1.389-.345-3.269-.764-1.322-.292c-.026-.007-.055-.012-.084-.017l-.894-.191-.77-.161-1.252-.251-1.324-.259-1.051-.2-.269-.05-1.132-.206q-.546-.1-1.093-.192l-1.576-.261-1.132-.179-1.125-.17q-1.346-.206-2.7-.386l-1.091-.144-1.113-.139-.592-.069-.077-.01v-22.6q4.749 1.122 9.41 2.46a210.083 210.083 0 0 1 48.023 20.524z"/><path fill="url(#q)" d="M318.874 73.589v156.2A107.84 107.84 0 0 1 309.912 273l-.038.082a.12.12 0 0 1-.015.045l-.217.479-1.417 3.045-1.131 2.38a1.85 1.85 0 0 0-.12.179l-1.371 2.567-2.219 3.756-2.15 3.323a106.65 106.65 0 0 1-60.548 43.422l-.7.21-.862.2a106.5 106.5 0 0 1-17.25 2.926l-.412.022-.488.045.892-.03 1.521-.045a141.4 141.4 0 0 0 114.165-71.221h.008v-.007a140.45 140.45 0 0 0 18.449-69.725V18.725h-37.135z"/><path fill="url(#r)" d="m404.433 311.912-.142.281.169-.333.02-.041Z"/><path fill="url(#s)" d="m403.337 314.066-.219.432.388-.756.049-.094.123-.244.166-.327-.4.781z"/></g></svg>